G04 #@! TF.GenerationSoftware,KiCad,Pcbnew,(5.0.2)-1*
G04 #@! TF.CreationDate,2020-04-06T16:25:54+09:00*
G04 #@! TF.ProjectId,ZED-F9P_Converter,5a45442d-4639-4505-9f43-6f6e76657274,1.0*
G04 #@! TF.SameCoordinates,Original*
G04 #@! TF.FileFunction,Copper,L1,Top*
G04 #@! TF.FilePolarity,Positive*
%FSLAX46Y46*%
G04 Gerber Fmt 4.6, Leading zero omitted, Abs format (unit mm)*
G04 Created by KiCad (PCBNEW (5.0.2)-1) date 2020/04/06 16:25:54*
%MOMM*%
%LPD*%
G01*
G04 APERTURE LIST*
G04 #@! TA.AperFunction,SMDPad,CuDef*
%ADD10R,1.100000X1.100000*%
G04 #@! TD*
G04 #@! TA.AperFunction,SMDPad,CuDef*
%ADD11R,1.600000X0.900000*%
G04 #@! TD*
G04 #@! TA.AperFunction,SMDPad,CuDef*
%ADD12R,0.900000X1.600000*%
G04 #@! TD*
G04 #@! TA.AperFunction,ComponentPad*
%ADD13R,1.700000X1.700000*%
G04 #@! TD*
G04 #@! TA.AperFunction,ComponentPad*
%ADD14O,1.700000X1.700000*%
G04 #@! TD*
G04 #@! TA.AperFunction,Conductor*
%ADD15C,0.500000*%
G04 #@! TD*
G04 #@! TA.AperFunction,Conductor*
%ADD16C,0.250000*%
G04 #@! TD*
G04 #@! TA.AperFunction,Conductor*
%ADD17C,0.254000*%
G04 #@! TD*
G04 APERTURE END LIST*
D10*
G04 #@! TO.P,U1,0*
G04 #@! TO.N,GND*
X144290000Y-109190000D03*
X140090000Y-109190000D03*
X148490000Y-109190000D03*
X142190000Y-109190000D03*
X135890000Y-109190000D03*
X137990000Y-109190000D03*
X146390000Y-109190000D03*
X150590000Y-109190000D03*
X142190000Y-111290000D03*
X150590000Y-111290000D03*
X144290000Y-111290000D03*
X140090000Y-111290000D03*
X148490000Y-111290000D03*
X135890000Y-111290000D03*
X146390000Y-111290000D03*
X137990000Y-111290000D03*
X140090000Y-113390000D03*
X148490000Y-113390000D03*
X135890000Y-113390000D03*
X144290000Y-113390000D03*
X150590000Y-113390000D03*
X146390000Y-113390000D03*
X142190000Y-113390000D03*
X137990000Y-113390000D03*
X140090000Y-115490000D03*
X144290000Y-115490000D03*
X148490000Y-115490000D03*
X150590000Y-115490000D03*
X142190000Y-115490000D03*
X135890000Y-115490000D03*
X137990000Y-115490000D03*
X146390000Y-115490000D03*
X140090000Y-117590000D03*
X144290000Y-117590000D03*
X142190000Y-117590000D03*
X135890000Y-117590000D03*
X148490000Y-117590000D03*
X150590000Y-117590000D03*
X137990000Y-117590000D03*
X146390000Y-117590000D03*
X150590000Y-119690000D03*
X148490000Y-119690000D03*
X146390000Y-119690000D03*
X144290000Y-119690000D03*
X142190000Y-119690000D03*
X140090000Y-119690000D03*
X137990000Y-119690000D03*
X135890000Y-119690000D03*
D11*
G04 #@! TO.P,U1,52*
G04 #@! TO.N,Net-(J4-Pad11)*
X133290000Y-118840000D03*
G04 #@! TO.P,U1,42*
G04 #@! TO.N,Net-(J4-Pad1)*
X133290000Y-107840000D03*
G04 #@! TO.P,U1,47*
G04 #@! TO.N,Net-(J4-Pad6)*
X133290000Y-113340000D03*
G04 #@! TO.P,U1,49*
G04 #@! TO.N,Net-(J4-Pad8)*
X133290000Y-115540000D03*
G04 #@! TO.P,U1,44*
G04 #@! TO.N,Net-(J4-Pad3)*
X133290000Y-110040000D03*
G04 #@! TO.P,U1,46*
G04 #@! TO.N,Net-(J4-Pad5)*
X133290000Y-112240000D03*
G04 #@! TO.P,U1,54*
G04 #@! TO.N,Net-(J4-Pad13)*
X133290000Y-121040000D03*
G04 #@! TO.P,U1,48*
G04 #@! TO.N,GND*
X133290000Y-114440000D03*
G04 #@! TO.P,U1,45*
G04 #@! TO.N,Net-(J4-Pad4)*
X133290000Y-111140000D03*
G04 #@! TO.P,U1,50*
G04 #@! TO.N,Net-(J4-Pad9)*
X133290000Y-116640000D03*
G04 #@! TO.P,U1,53*
G04 #@! TO.N,Net-(J4-Pad12)*
X133290000Y-119940000D03*
G04 #@! TO.P,U1,51*
G04 #@! TO.N,Net-(J4-Pad10)*
X133290000Y-117740000D03*
G04 #@! TO.P,U1,43*
G04 #@! TO.N,Net-(J4-Pad2)*
X133290000Y-108940000D03*
G04 #@! TO.P,U1,27*
G04 #@! TO.N,Net-(J2-Pad13)*
X153190000Y-107840000D03*
G04 #@! TO.P,U1,26*
G04 #@! TO.N,Net-(J2-Pad12)*
X153190000Y-108940000D03*
G04 #@! TO.P,U1,25*
G04 #@! TO.N,Net-(J2-Pad11)*
X153190000Y-110040000D03*
G04 #@! TO.P,U1,24*
G04 #@! TO.N,Net-(J2-Pad10)*
X153190000Y-111140000D03*
G04 #@! TO.P,U1,23*
G04 #@! TO.N,Net-(J2-Pad9)*
X153190000Y-112240000D03*
G04 #@! TO.P,U1,22*
G04 #@! TO.N,Net-(J2-Pad8)*
X153190000Y-113340000D03*
G04 #@! TO.P,U1,21*
G04 #@! TO.N,Net-(J2-Pad7)*
X153190000Y-114440000D03*
G04 #@! TO.P,U1,20*
G04 #@! TO.N,Net-(J2-Pad6)*
X153190000Y-115540000D03*
G04 #@! TO.P,U1,19*
G04 #@! TO.N,Net-(J2-Pad5)*
X153190000Y-116640000D03*
G04 #@! TO.P,U1,18*
G04 #@! TO.N,Net-(J2-Pad4)*
X153190000Y-117740000D03*
G04 #@! TO.P,U1,17*
G04 #@! TO.N,Net-(J2-Pad3)*
X153190000Y-118840000D03*
G04 #@! TO.P,U1,16*
G04 #@! TO.N,Net-(J2-Pad2)*
X153190000Y-119940000D03*
G04 #@! TO.P,U1,15*
G04 #@! TO.N,Net-(J2-Pad1)*
X153190000Y-121040000D03*
D12*
G04 #@! TO.P,U1,33*
G04 #@! TO.N,Net-(J3-Pad6)*
X144890000Y-106940000D03*
G04 #@! TO.P,U1,34*
G04 #@! TO.N,Net-(J3-Pad7)*
X143790000Y-106940000D03*
G04 #@! TO.P,U1,35*
G04 #@! TO.N,Net-(J3-Pad8)*
X142690000Y-106940000D03*
G04 #@! TO.P,U1,37*
G04 #@! TO.N,GND*
X140490000Y-106940000D03*
G04 #@! TO.P,U1,32*
X145990000Y-106940000D03*
G04 #@! TO.P,U1,39*
G04 #@! TO.N,Net-(J3-Pad12)*
X138290000Y-106940000D03*
G04 #@! TO.P,U1,38*
G04 #@! TO.N,Net-(J3-Pad11)*
X139390000Y-106940000D03*
G04 #@! TO.P,U1,28*
G04 #@! TO.N,Net-(J3-Pad1)*
X150390000Y-106940000D03*
G04 #@! TO.P,U1,41*
G04 #@! TO.N,GND*
X136090000Y-106940000D03*
G04 #@! TO.P,U1,40*
G04 #@! TO.N,Net-(J3-Pad13)*
X137190000Y-106940000D03*
G04 #@! TO.P,U1,29*
G04 #@! TO.N,Net-(J3-Pad2)*
X149290000Y-106940000D03*
G04 #@! TO.P,U1,36*
G04 #@! TO.N,Net-(J3-Pad9)*
X141590000Y-106940000D03*
G04 #@! TO.P,U1,31*
G04 #@! TO.N,Net-(J3-Pad4)*
X147090000Y-106940000D03*
G04 #@! TO.P,U1,30*
G04 #@! TO.N,Net-(J3-Pad3)*
X148190000Y-106940000D03*
G04 #@! TO.P,U1,14*
G04 #@! TO.N,GND*
X150390000Y-121890000D03*
G04 #@! TO.P,U1,13*
G04 #@! TO.N,Net-(J1-Pad13)*
X149290000Y-121890000D03*
G04 #@! TO.P,U1,12*
G04 #@! TO.N,GND*
X148190000Y-121890000D03*
G04 #@! TO.P,U1,11*
G04 #@! TO.N,Net-(J1-Pad11)*
X147090000Y-121890000D03*
G04 #@! TO.P,U1,10*
G04 #@! TO.N,Net-(J1-Pad10)*
X145990000Y-121890000D03*
G04 #@! TO.P,U1,9*
G04 #@! TO.N,Net-(J1-Pad9)*
X144890000Y-121890000D03*
G04 #@! TO.P,U1,8*
G04 #@! TO.N,Net-(J1-Pad8)*
X143790000Y-121890000D03*
G04 #@! TO.P,U1,7*
G04 #@! TO.N,Net-(J1-Pad7)*
X142690000Y-121890000D03*
G04 #@! TO.P,U1,6*
G04 #@! TO.N,Net-(J1-Pad6)*
X141590000Y-121890000D03*
G04 #@! TO.P,U1,5*
G04 #@! TO.N,Net-(J1-Pad5)*
X140490000Y-121890000D03*
G04 #@! TO.P,U1,4*
G04 #@! TO.N,Net-(J1-Pad4)*
X139390000Y-121890000D03*
G04 #@! TO.P,U1,3*
G04 #@! TO.N,GND*
X138290000Y-121890000D03*
G04 #@! TO.P,U1,2*
G04 #@! TO.N,Net-(J1-Pad2)*
X137190000Y-121890000D03*
G04 #@! TO.P,U1,1*
G04 #@! TO.N,GND*
X136090000Y-121890000D03*
G04 #@! TD*
D13*
G04 #@! TO.P,J1,1*
G04 #@! TO.N,GND*
X126730000Y-129680000D03*
D14*
G04 #@! TO.P,J1,2*
G04 #@! TO.N,Net-(J1-Pad2)*
X129270000Y-129680000D03*
G04 #@! TO.P,J1,3*
G04 #@! TO.N,GND*
X131810000Y-129680000D03*
G04 #@! TO.P,J1,4*
G04 #@! TO.N,Net-(J1-Pad4)*
X134350000Y-129680000D03*
G04 #@! TO.P,J1,5*
G04 #@! TO.N,Net-(J1-Pad5)*
X136890000Y-129680000D03*
G04 #@! TO.P,J1,6*
G04 #@! TO.N,Net-(J1-Pad6)*
X139430000Y-129680000D03*
G04 #@! TO.P,J1,7*
G04 #@! TO.N,Net-(J1-Pad7)*
X141970000Y-129680000D03*
G04 #@! TO.P,J1,8*
G04 #@! TO.N,Net-(J1-Pad8)*
X144510000Y-129680000D03*
G04 #@! TO.P,J1,9*
G04 #@! TO.N,Net-(J1-Pad9)*
X147050000Y-129680000D03*
G04 #@! TO.P,J1,10*
G04 #@! TO.N,Net-(J1-Pad10)*
X149590000Y-129680000D03*
G04 #@! TO.P,J1,11*
G04 #@! TO.N,Net-(J1-Pad11)*
X152130000Y-129680000D03*
G04 #@! TO.P,J1,12*
G04 #@! TO.N,GND*
X154670000Y-129680000D03*
G04 #@! TO.P,J1,13*
G04 #@! TO.N,Net-(J1-Pad13)*
X157210000Y-129680000D03*
G04 #@! TO.P,J1,14*
G04 #@! TO.N,GND*
X159750000Y-129680000D03*
G04 #@! TD*
D13*
G04 #@! TO.P,J2,1*
G04 #@! TO.N,Net-(J2-Pad1)*
X162290000Y-129680000D03*
D14*
G04 #@! TO.P,J2,2*
G04 #@! TO.N,Net-(J2-Pad2)*
X162290000Y-127140000D03*
G04 #@! TO.P,J2,3*
G04 #@! TO.N,Net-(J2-Pad3)*
X162290000Y-124600000D03*
G04 #@! TO.P,J2,4*
G04 #@! TO.N,Net-(J2-Pad4)*
X162290000Y-122060000D03*
G04 #@! TO.P,J2,5*
G04 #@! TO.N,Net-(J2-Pad5)*
X162290000Y-119520000D03*
G04 #@! TO.P,J2,6*
G04 #@! TO.N,Net-(J2-Pad6)*
X162290000Y-116980000D03*
G04 #@! TO.P,J2,7*
G04 #@! TO.N,Net-(J2-Pad7)*
X162290000Y-114440000D03*
G04 #@! TO.P,J2,8*
G04 #@! TO.N,Net-(J2-Pad8)*
X162290000Y-111900000D03*
G04 #@! TO.P,J2,9*
G04 #@! TO.N,Net-(J2-Pad9)*
X162290000Y-109360000D03*
G04 #@! TO.P,J2,10*
G04 #@! TO.N,Net-(J2-Pad10)*
X162290000Y-106820000D03*
G04 #@! TO.P,J2,11*
G04 #@! TO.N,Net-(J2-Pad11)*
X162290000Y-104280000D03*
G04 #@! TO.P,J2,12*
G04 #@! TO.N,Net-(J2-Pad12)*
X162290000Y-101740000D03*
G04 #@! TO.P,J2,13*
G04 #@! TO.N,Net-(J2-Pad13)*
X162290000Y-99200000D03*
G04 #@! TD*
G04 #@! TO.P,J3,14*
G04 #@! TO.N,GND*
X126730000Y-99200000D03*
G04 #@! TO.P,J3,13*
G04 #@! TO.N,Net-(J3-Pad13)*
X129270000Y-99200000D03*
G04 #@! TO.P,J3,12*
G04 #@! TO.N,Net-(J3-Pad12)*
X131810000Y-99200000D03*
G04 #@! TO.P,J3,11*
G04 #@! TO.N,Net-(J3-Pad11)*
X134350000Y-99200000D03*
G04 #@! TO.P,J3,10*
G04 #@! TO.N,GND*
X136890000Y-99200000D03*
G04 #@! TO.P,J3,9*
G04 #@! TO.N,Net-(J3-Pad9)*
X139430000Y-99200000D03*
G04 #@! TO.P,J3,8*
G04 #@! TO.N,Net-(J3-Pad8)*
X141970000Y-99200000D03*
G04 #@! TO.P,J3,7*
G04 #@! TO.N,Net-(J3-Pad7)*
X144510000Y-99200000D03*
G04 #@! TO.P,J3,6*
G04 #@! TO.N,Net-(J3-Pad6)*
X147050000Y-99200000D03*
G04 #@! TO.P,J3,5*
G04 #@! TO.N,GND*
X149590000Y-99200000D03*
G04 #@! TO.P,J3,4*
G04 #@! TO.N,Net-(J3-Pad4)*
X152130000Y-99200000D03*
G04 #@! TO.P,J3,3*
G04 #@! TO.N,Net-(J3-Pad3)*
X154670000Y-99200000D03*
G04 #@! TO.P,J3,2*
G04 #@! TO.N,Net-(J3-Pad2)*
X157210000Y-99200000D03*
D13*
G04 #@! TO.P,J3,1*
G04 #@! TO.N,Net-(J3-Pad1)*
X159750000Y-99200000D03*
G04 #@! TD*
D14*
G04 #@! TO.P,J4,13*
G04 #@! TO.N,Net-(J4-Pad13)*
X124190000Y-129680000D03*
G04 #@! TO.P,J4,12*
G04 #@! TO.N,Net-(J4-Pad12)*
X124190000Y-127140000D03*
G04 #@! TO.P,J4,11*
G04 #@! TO.N,Net-(J4-Pad11)*
X124190000Y-124600000D03*
G04 #@! TO.P,J4,10*
G04 #@! TO.N,Net-(J4-Pad10)*
X124190000Y-122060000D03*
G04 #@! TO.P,J4,9*
G04 #@! TO.N,Net-(J4-Pad9)*
X124190000Y-119520000D03*
G04 #@! TO.P,J4,8*
G04 #@! TO.N,Net-(J4-Pad8)*
X124190000Y-116980000D03*
G04 #@! TO.P,J4,7*
G04 #@! TO.N,GND*
X124190000Y-114440000D03*
G04 #@! TO.P,J4,6*
G04 #@! TO.N,Net-(J4-Pad6)*
X124190000Y-111900000D03*
G04 #@! TO.P,J4,5*
G04 #@! TO.N,Net-(J4-Pad5)*
X124190000Y-109360000D03*
G04 #@! TO.P,J4,4*
G04 #@! TO.N,Net-(J4-Pad4)*
X124190000Y-106820000D03*
G04 #@! TO.P,J4,3*
G04 #@! TO.N,Net-(J4-Pad3)*
X124190000Y-104280000D03*
G04 #@! TO.P,J4,2*
G04 #@! TO.N,Net-(J4-Pad2)*
X124190000Y-101740000D03*
D13*
G04 #@! TO.P,J4,1*
G04 #@! TO.N,Net-(J4-Pad1)*
X124190000Y-99200000D03*
G04 #@! TD*
D15*
G04 #@! TO.N,Net-(J1-Pad2)*
X132585000Y-126365000D02*
X129270000Y-129680000D01*
X133675002Y-126365000D02*
X132585000Y-126365000D01*
X137190000Y-121890000D02*
X137190000Y-122850002D01*
X137190000Y-122850002D02*
X133675002Y-126365000D01*
G04 #@! TO.N,Net-(J1-Pad4)*
X139390000Y-124640000D02*
X134350000Y-129680000D01*
X139390000Y-121890000D02*
X139390000Y-124640000D01*
G04 #@! TO.N,Net-(J1-Pad5)*
X140490000Y-126080000D02*
X136890000Y-129680000D01*
X140490000Y-121890000D02*
X140490000Y-126080000D01*
G04 #@! TO.N,Net-(J1-Pad6)*
X141590000Y-127520000D02*
X139430000Y-129680000D01*
X141590000Y-121890000D02*
X141590000Y-127520000D01*
G04 #@! TO.N,Net-(J1-Pad7)*
X142819999Y-128830001D02*
X141970000Y-129680000D01*
X142819999Y-122234999D02*
X142819999Y-128830001D01*
X142690000Y-122105000D02*
X142819999Y-122234999D01*
X142690000Y-121890000D02*
X142690000Y-122105000D01*
G04 #@! TO.N,Net-(J1-Pad8)*
X143790000Y-128960000D02*
X144510000Y-129680000D01*
X143790000Y-121890000D02*
X143790000Y-128960000D01*
G04 #@! TO.N,Net-(J1-Pad9)*
X144890000Y-127520000D02*
X147050000Y-129680000D01*
X144890000Y-121890000D02*
X144890000Y-127520000D01*
G04 #@! TO.N,Net-(J1-Pad10)*
X145990000Y-126080000D02*
X149590000Y-129680000D01*
X145990000Y-121890000D02*
X145990000Y-126080000D01*
G04 #@! TO.N,Net-(J1-Pad11)*
X147090000Y-124640000D02*
X152130000Y-129680000D01*
X147090000Y-121890000D02*
X147090000Y-124640000D01*
G04 #@! TO.N,Net-(J1-Pad13)*
X156360001Y-128830001D02*
X157210000Y-129680000D01*
X153998002Y-126468002D02*
X156360001Y-128830001D01*
X152908000Y-126468002D02*
X153998002Y-126468002D01*
X149290000Y-121890000D02*
X149290000Y-122850002D01*
X149290000Y-122850002D02*
X152908000Y-126468002D01*
G04 #@! TO.N,Net-(J2-Pad1)*
X162180000Y-129680000D02*
X162290000Y-129680000D01*
X153540000Y-121040000D02*
X162180000Y-129680000D01*
X153190000Y-121040000D02*
X153540000Y-121040000D01*
G04 #@! TO.N,Net-(J2-Pad2)*
X155090000Y-119940000D02*
X162290000Y-127140000D01*
X153190000Y-119940000D02*
X155090000Y-119940000D01*
G04 #@! TO.N,Net-(J2-Pad3)*
X156530000Y-118840000D02*
X162290000Y-124600000D01*
X153190000Y-118840000D02*
X156530000Y-118840000D01*
G04 #@! TO.N,Net-(J2-Pad4)*
X157970000Y-117740000D02*
X162290000Y-122060000D01*
X153190000Y-117740000D02*
X157970000Y-117740000D01*
G04 #@! TO.N,Net-(J2-Pad5)*
X159410000Y-116640000D02*
X162290000Y-119520000D01*
X153190000Y-116640000D02*
X159410000Y-116640000D01*
G04 #@! TO.N,Net-(J2-Pad6)*
X160850000Y-115540000D02*
X162290000Y-116980000D01*
X153190000Y-115540000D02*
X160850000Y-115540000D01*
G04 #@! TO.N,Net-(J2-Pad7)*
X153190000Y-114440000D02*
X162290000Y-114440000D01*
G04 #@! TO.N,Net-(J2-Pad8)*
X160850000Y-113340000D02*
X162290000Y-111900000D01*
X153190000Y-113340000D02*
X160850000Y-113340000D01*
G04 #@! TO.N,Net-(J2-Pad9)*
X159410000Y-112240000D02*
X162290000Y-109360000D01*
X153190000Y-112240000D02*
X159410000Y-112240000D01*
G04 #@! TO.N,Net-(J2-Pad10)*
X157970000Y-111140000D02*
X162290000Y-106820000D01*
X153190000Y-111140000D02*
X157970000Y-111140000D01*
G04 #@! TO.N,Net-(J2-Pad11)*
X156530000Y-110040000D02*
X162290000Y-104280000D01*
X153190000Y-110040000D02*
X156530000Y-110040000D01*
G04 #@! TO.N,Net-(J2-Pad12)*
X155090000Y-108940000D02*
X162290000Y-101740000D01*
X153190000Y-108940000D02*
X155090000Y-108940000D01*
G04 #@! TO.N,Net-(J2-Pad13)*
X161440001Y-100049999D02*
X162290000Y-99200000D01*
X153650000Y-107840000D02*
X161440001Y-100049999D01*
X153190000Y-107840000D02*
X153650000Y-107840000D01*
G04 #@! TO.N,Net-(J3-Pad13)*
X130119999Y-100049999D02*
X129270000Y-99200000D01*
X132813000Y-102743000D02*
X130119999Y-100049999D01*
X133953002Y-102743000D02*
X132813000Y-102743000D01*
X137190000Y-106940000D02*
X137190000Y-105979998D01*
X137190000Y-105979998D02*
X133953002Y-102743000D01*
G04 #@! TO.N,Net-(J3-Pad12)*
X131850000Y-99200000D02*
X131810000Y-99200000D01*
X138290000Y-105640000D02*
X131850000Y-99200000D01*
X138290000Y-106940000D02*
X138290000Y-105640000D01*
G04 #@! TO.N,Net-(J3-Pad11)*
X135199999Y-100049999D02*
X134350000Y-99200000D01*
X139190001Y-104040001D02*
X135199999Y-100049999D01*
X139190001Y-106043001D02*
X139190001Y-104040001D01*
X139390000Y-106243000D02*
X139190001Y-106043001D01*
X139390000Y-106940000D02*
X139390000Y-106243000D01*
G04 #@! TO.N,Net-(J3-Pad9)*
X141590000Y-101360000D02*
X139430000Y-99200000D01*
X141590000Y-106940000D02*
X141590000Y-101360000D01*
G04 #@! TO.N,Net-(J3-Pad8)*
X142690000Y-99920000D02*
X141970000Y-99200000D01*
X142690000Y-106940000D02*
X142690000Y-99920000D01*
G04 #@! TO.N,Net-(J3-Pad7)*
X143790000Y-99920000D02*
X144510000Y-99200000D01*
X143790000Y-106940000D02*
X143790000Y-99920000D01*
G04 #@! TO.N,Net-(J3-Pad6)*
X144890000Y-101360000D02*
X147050000Y-99200000D01*
X144890000Y-106940000D02*
X144890000Y-101360000D01*
G04 #@! TO.N,Net-(J3-Pad4)*
X147090000Y-104240000D02*
X152130000Y-99200000D01*
X147090000Y-106940000D02*
X147090000Y-104240000D01*
G04 #@! TO.N,Net-(J3-Pad3)*
X154630000Y-99200000D02*
X154670000Y-99200000D01*
X148190000Y-105640000D02*
X154630000Y-99200000D01*
X148190000Y-106940000D02*
X148190000Y-105640000D01*
G04 #@! TO.N,Net-(J3-Pad2)*
X156360001Y-100049999D02*
X157210000Y-99200000D01*
X153667000Y-102743000D02*
X156360001Y-100049999D01*
X152526998Y-102743000D02*
X153667000Y-102743000D01*
X149290000Y-106940000D02*
X149290000Y-105979998D01*
X149290000Y-105979998D02*
X152526998Y-102743000D01*
G04 #@! TO.N,Net-(J3-Pad1)*
X151340000Y-106940000D02*
X150390000Y-106940000D01*
X152013000Y-106940000D02*
X151340000Y-106940000D01*
X159750000Y-99200000D02*
X159750000Y-99203000D01*
X159750000Y-99203000D02*
X152013000Y-106940000D01*
G04 #@! TO.N,Net-(J4-Pad13)*
X132830000Y-121040000D02*
X133290000Y-121040000D01*
X124190000Y-129680000D02*
X132830000Y-121040000D01*
G04 #@! TO.N,Net-(J4-Pad12)*
X131390000Y-119940000D02*
X133290000Y-119940000D01*
X124190000Y-127140000D02*
X131390000Y-119940000D01*
G04 #@! TO.N,Net-(J4-Pad11)*
X129950000Y-118840000D02*
X133290000Y-118840000D01*
X124190000Y-124600000D02*
X129950000Y-118840000D01*
D16*
G04 #@! TO.N,Net-(J4-Pad10)*
X125039999Y-121210001D02*
X124190000Y-122060000D01*
X127860010Y-118389990D02*
X125039999Y-121210001D01*
X133290000Y-117740000D02*
X132240000Y-117740000D01*
D15*
X128510000Y-117740000D02*
X124190000Y-122060000D01*
X133290000Y-117740000D02*
X128510000Y-117740000D01*
G04 #@! TO.N,Net-(J4-Pad9)*
X127070000Y-116640000D02*
X124190000Y-119520000D01*
X133290000Y-116640000D02*
X127070000Y-116640000D01*
G04 #@! TO.N,Net-(J4-Pad8)*
X125630000Y-115540000D02*
X124190000Y-116980000D01*
X133290000Y-115540000D02*
X125630000Y-115540000D01*
G04 #@! TO.N,Net-(J4-Pad6)*
X125630000Y-113340000D02*
X124190000Y-111900000D01*
X133290000Y-113340000D02*
X125630000Y-113340000D01*
G04 #@! TO.N,Net-(J4-Pad5)*
X127070000Y-112240000D02*
X133290000Y-112240000D01*
X124190000Y-109360000D02*
X127070000Y-112240000D01*
G04 #@! TO.N,Net-(J4-Pad4)*
X128510000Y-111140000D02*
X124190000Y-106820000D01*
X133290000Y-111140000D02*
X128510000Y-111140000D01*
G04 #@! TO.N,Net-(J4-Pad3)*
X129950000Y-110040000D02*
X133290000Y-110040000D01*
X124190000Y-104280000D02*
X129950000Y-110040000D01*
G04 #@! TO.N,Net-(J4-Pad2)*
X131390000Y-108940000D02*
X124190000Y-101740000D01*
X133290000Y-108940000D02*
X131390000Y-108940000D01*
G04 #@! TO.N,Net-(J4-Pad1)*
X124300000Y-99200000D02*
X124190000Y-99200000D01*
X132940000Y-107840000D02*
X124300000Y-99200000D01*
X133290000Y-107840000D02*
X132940000Y-107840000D01*
G04 #@! TO.N,GND*
X148190000Y-123200000D02*
X154670000Y-129680000D01*
X148190000Y-121890000D02*
X148190000Y-123200000D01*
X138290000Y-123200000D02*
X131810000Y-129680000D01*
X138290000Y-121890000D02*
X138290000Y-123200000D01*
X135890000Y-120740000D02*
X135890000Y-119690000D01*
X126730000Y-129680000D02*
X126950000Y-129680000D01*
X151960000Y-121890000D02*
X159750000Y-129680000D01*
X150390000Y-121890000D02*
X151960000Y-121890000D01*
X124190000Y-114440000D02*
X133290000Y-114440000D01*
X134470000Y-106940000D02*
X126730000Y-99200000D01*
X136090000Y-106940000D02*
X134470000Y-106940000D01*
X145990000Y-102800000D02*
X149590000Y-99200000D01*
X145990000Y-106940000D02*
X145990000Y-102800000D01*
X140490000Y-102800000D02*
X136890000Y-99200000D01*
X140490000Y-106940000D02*
X140490000Y-102800000D01*
X133730895Y-122682000D02*
X136090000Y-121890000D01*
X126730000Y-129680000D02*
X133730895Y-122682000D01*
G04 #@! TD*
D17*
G04 #@! TO.N,GND*
G36*
X135280302Y-105601673D02*
X135101673Y-105780301D01*
X135005000Y-106013690D01*
X135005000Y-106654250D01*
X135163750Y-106813000D01*
X135963000Y-106813000D01*
X135963000Y-106793000D01*
X136092560Y-106793000D01*
X136092560Y-107740000D01*
X136141843Y-107987765D01*
X136217000Y-108100245D01*
X136217000Y-108216250D01*
X136375750Y-108375000D01*
X136666309Y-108375000D01*
X136669926Y-108373502D01*
X136740000Y-108387440D01*
X137640000Y-108387440D01*
X137740000Y-108367549D01*
X137840000Y-108387440D01*
X138740000Y-108387440D01*
X138840000Y-108367549D01*
X138940000Y-108387440D01*
X139840000Y-108387440D01*
X139910074Y-108373502D01*
X139913691Y-108375000D01*
X140204250Y-108375000D01*
X140363000Y-108216250D01*
X140363000Y-108100245D01*
X140438157Y-107987765D01*
X140487440Y-107740000D01*
X140487440Y-106793000D01*
X140492560Y-106793000D01*
X140492560Y-107740000D01*
X140541843Y-107987765D01*
X140617000Y-108100245D01*
X140617000Y-108216250D01*
X140775750Y-108375000D01*
X141066309Y-108375000D01*
X141069926Y-108373502D01*
X141140000Y-108387440D01*
X142040000Y-108387440D01*
X142140000Y-108367549D01*
X142240000Y-108387440D01*
X143140000Y-108387440D01*
X143240000Y-108367549D01*
X143340000Y-108387440D01*
X144240000Y-108387440D01*
X144340000Y-108367549D01*
X144440000Y-108387440D01*
X145340000Y-108387440D01*
X145410074Y-108373502D01*
X145413691Y-108375000D01*
X145704250Y-108375000D01*
X145863000Y-108216250D01*
X145863000Y-108100245D01*
X145938157Y-107987765D01*
X145987440Y-107740000D01*
X145987440Y-106793000D01*
X145992560Y-106793000D01*
X145992560Y-107740000D01*
X146041843Y-107987765D01*
X146117000Y-108100245D01*
X146117000Y-108216250D01*
X146275750Y-108375000D01*
X146566309Y-108375000D01*
X146569926Y-108373502D01*
X146640000Y-108387440D01*
X147540000Y-108387440D01*
X147640000Y-108367549D01*
X147740000Y-108387440D01*
X148640000Y-108387440D01*
X148740000Y-108367549D01*
X148840000Y-108387440D01*
X149740000Y-108387440D01*
X149840000Y-108367549D01*
X149940000Y-108387440D01*
X150840000Y-108387440D01*
X151087765Y-108338157D01*
X151297809Y-108197809D01*
X151438157Y-107987765D01*
X151470533Y-107825000D01*
X151742560Y-107825000D01*
X151742560Y-108290000D01*
X151762451Y-108390000D01*
X151742560Y-108490000D01*
X151742560Y-109390000D01*
X151762451Y-109490000D01*
X151742560Y-109590000D01*
X151742560Y-110490000D01*
X151762451Y-110590000D01*
X151742560Y-110690000D01*
X151742560Y-111590000D01*
X151762451Y-111690000D01*
X151742560Y-111790000D01*
X151742560Y-112690000D01*
X151762451Y-112790000D01*
X151742560Y-112890000D01*
X151742560Y-113790000D01*
X151762451Y-113890000D01*
X151742560Y-113990000D01*
X151742560Y-114890000D01*
X151762451Y-114990000D01*
X151742560Y-115090000D01*
X151742560Y-115990000D01*
X151762451Y-116090000D01*
X151742560Y-116190000D01*
X151742560Y-117090000D01*
X151762451Y-117190000D01*
X151742560Y-117290000D01*
X151742560Y-118190000D01*
X151762451Y-118290000D01*
X151742560Y-118390000D01*
X151742560Y-119290000D01*
X151762451Y-119390000D01*
X151742560Y-119490000D01*
X151742560Y-120390000D01*
X151762451Y-120490000D01*
X151742560Y-120590000D01*
X151742560Y-121490000D01*
X151791843Y-121737765D01*
X151932191Y-121947809D01*
X152142235Y-122088157D01*
X152390000Y-122137440D01*
X153385862Y-122137440D01*
X154311422Y-123063000D01*
X151365026Y-123063000D01*
X151378327Y-123049699D01*
X151475000Y-122816310D01*
X151475000Y-122175750D01*
X151316250Y-122017000D01*
X150517000Y-122017000D01*
X150517000Y-122037000D01*
X150387440Y-122037000D01*
X150387440Y-121090000D01*
X150338157Y-120842235D01*
X150263000Y-120729755D01*
X150263000Y-120613750D01*
X150517000Y-120613750D01*
X150517000Y-121763000D01*
X151316250Y-121763000D01*
X151475000Y-121604250D01*
X151475000Y-120963690D01*
X151378327Y-120730301D01*
X151199698Y-120551673D01*
X150966309Y-120455000D01*
X150675750Y-120455000D01*
X150517000Y-120613750D01*
X150263000Y-120613750D01*
X150104250Y-120455000D01*
X149813691Y-120455000D01*
X149810074Y-120456498D01*
X149740000Y-120442560D01*
X148840000Y-120442560D01*
X148769926Y-120456498D01*
X148766309Y-120455000D01*
X148475750Y-120455000D01*
X148317000Y-120613750D01*
X148317000Y-120729755D01*
X148241843Y-120842235D01*
X148192560Y-121090000D01*
X148192560Y-122037000D01*
X148187440Y-122037000D01*
X148187440Y-121090000D01*
X148138157Y-120842235D01*
X148063000Y-120729755D01*
X148063000Y-120613750D01*
X147904250Y-120455000D01*
X147613691Y-120455000D01*
X147610074Y-120456498D01*
X147540000Y-120442560D01*
X146640000Y-120442560D01*
X146540000Y-120462451D01*
X146440000Y-120442560D01*
X145540000Y-120442560D01*
X145440000Y-120462451D01*
X145340000Y-120442560D01*
X144440000Y-120442560D01*
X144340000Y-120462451D01*
X144240000Y-120442560D01*
X143340000Y-120442560D01*
X143240000Y-120462451D01*
X143140000Y-120442560D01*
X142240000Y-120442560D01*
X142140000Y-120462451D01*
X142040000Y-120442560D01*
X141140000Y-120442560D01*
X141040000Y-120462451D01*
X140940000Y-120442560D01*
X140040000Y-120442560D01*
X139940000Y-120462451D01*
X139840000Y-120442560D01*
X138940000Y-120442560D01*
X138869926Y-120456498D01*
X138866309Y-120455000D01*
X138575750Y-120455000D01*
X138417000Y-120613750D01*
X138417000Y-120729755D01*
X138341843Y-120842235D01*
X138292560Y-121090000D01*
X138292560Y-122037000D01*
X138287440Y-122037000D01*
X138287440Y-121090000D01*
X138238157Y-120842235D01*
X138163000Y-120729755D01*
X138163000Y-120613750D01*
X138004250Y-120455000D01*
X137713691Y-120455000D01*
X137710074Y-120456498D01*
X137640000Y-120442560D01*
X136740000Y-120442560D01*
X136669926Y-120456498D01*
X136666309Y-120455000D01*
X136375750Y-120455000D01*
X136217000Y-120613750D01*
X136217000Y-120729755D01*
X136141843Y-120842235D01*
X136092560Y-121090000D01*
X136092560Y-122037000D01*
X135963000Y-122037000D01*
X135963000Y-122017000D01*
X135163750Y-122017000D01*
X135005000Y-122175750D01*
X135005000Y-122816310D01*
X135101673Y-123049699D01*
X135114974Y-123063000D01*
X132207000Y-123063000D01*
X132207000Y-122914579D01*
X132984139Y-122137440D01*
X134090000Y-122137440D01*
X134337765Y-122088157D01*
X134547809Y-121947809D01*
X134688157Y-121737765D01*
X134737440Y-121490000D01*
X134737440Y-120963690D01*
X135005000Y-120963690D01*
X135005000Y-121604250D01*
X135163750Y-121763000D01*
X135963000Y-121763000D01*
X135963000Y-120613750D01*
X135804250Y-120455000D01*
X135513691Y-120455000D01*
X135280302Y-120551673D01*
X135101673Y-120730301D01*
X135005000Y-120963690D01*
X134737440Y-120963690D01*
X134737440Y-120590000D01*
X134717549Y-120490000D01*
X134737440Y-120390000D01*
X134737440Y-119490000D01*
X134717549Y-119390000D01*
X134737440Y-119290000D01*
X134737440Y-118390000D01*
X134717549Y-118290000D01*
X134737440Y-118190000D01*
X134737440Y-117290000D01*
X134717549Y-117190000D01*
X134737440Y-117090000D01*
X134737440Y-116190000D01*
X134717549Y-116090000D01*
X134737440Y-115990000D01*
X134737440Y-115090000D01*
X134723502Y-115019927D01*
X134725000Y-115016310D01*
X134725000Y-114725750D01*
X134566250Y-114567000D01*
X134450245Y-114567000D01*
X134337765Y-114491843D01*
X134090000Y-114442560D01*
X133143000Y-114442560D01*
X133143000Y-114437440D01*
X134090000Y-114437440D01*
X134337765Y-114388157D01*
X134450245Y-114313000D01*
X134566250Y-114313000D01*
X134725000Y-114154250D01*
X134725000Y-113863690D01*
X134723502Y-113860073D01*
X134737440Y-113790000D01*
X134737440Y-112890000D01*
X134717549Y-112790000D01*
X134737440Y-112690000D01*
X134737440Y-111790000D01*
X134717549Y-111690000D01*
X134737440Y-111590000D01*
X134737440Y-110690000D01*
X134717549Y-110590000D01*
X134737440Y-110490000D01*
X134737440Y-109590000D01*
X134717549Y-109490000D01*
X134737440Y-109390000D01*
X134737440Y-108490000D01*
X134717549Y-108390000D01*
X134737440Y-108290000D01*
X134737440Y-107390000D01*
X134704769Y-107225750D01*
X135005000Y-107225750D01*
X135005000Y-107866310D01*
X135101673Y-108099699D01*
X135280302Y-108278327D01*
X135513691Y-108375000D01*
X135804250Y-108375000D01*
X135963000Y-108216250D01*
X135963000Y-107067000D01*
X135163750Y-107067000D01*
X135005000Y-107225750D01*
X134704769Y-107225750D01*
X134688157Y-107142235D01*
X134547809Y-106932191D01*
X134337765Y-106791843D01*
X134090000Y-106742560D01*
X133094139Y-106742560D01*
X132207000Y-105855421D01*
X132207000Y-105537000D01*
X135436436Y-105537000D01*
X135280302Y-105601673D01*
X135280302Y-105601673D01*
G37*
X135280302Y-105601673D02*
X135101673Y-105780301D01*
X135005000Y-106013690D01*
X135005000Y-106654250D01*
X135163750Y-106813000D01*
X135963000Y-106813000D01*
X135963000Y-106793000D01*
X136092560Y-106793000D01*
X136092560Y-107740000D01*
X136141843Y-107987765D01*
X136217000Y-108100245D01*
X136217000Y-108216250D01*
X136375750Y-108375000D01*
X136666309Y-108375000D01*
X136669926Y-108373502D01*
X136740000Y-108387440D01*
X137640000Y-108387440D01*
X137740000Y-108367549D01*
X137840000Y-108387440D01*
X138740000Y-108387440D01*
X138840000Y-108367549D01*
X138940000Y-108387440D01*
X139840000Y-108387440D01*
X139910074Y-108373502D01*
X139913691Y-108375000D01*
X140204250Y-108375000D01*
X140363000Y-108216250D01*
X140363000Y-108100245D01*
X140438157Y-107987765D01*
X140487440Y-107740000D01*
X140487440Y-106793000D01*
X140492560Y-106793000D01*
X140492560Y-107740000D01*
X140541843Y-107987765D01*
X140617000Y-108100245D01*
X140617000Y-108216250D01*
X140775750Y-108375000D01*
X141066309Y-108375000D01*
X141069926Y-108373502D01*
X141140000Y-108387440D01*
X142040000Y-108387440D01*
X142140000Y-108367549D01*
X142240000Y-108387440D01*
X143140000Y-108387440D01*
X143240000Y-108367549D01*
X143340000Y-108387440D01*
X144240000Y-108387440D01*
X144340000Y-108367549D01*
X144440000Y-108387440D01*
X145340000Y-108387440D01*
X145410074Y-108373502D01*
X145413691Y-108375000D01*
X145704250Y-108375000D01*
X145863000Y-108216250D01*
X145863000Y-108100245D01*
X145938157Y-107987765D01*
X145987440Y-107740000D01*
X145987440Y-106793000D01*
X145992560Y-106793000D01*
X145992560Y-107740000D01*
X146041843Y-107987765D01*
X146117000Y-108100245D01*
X146117000Y-108216250D01*
X146275750Y-108375000D01*
X146566309Y-108375000D01*
X146569926Y-108373502D01*
X146640000Y-108387440D01*
X147540000Y-108387440D01*
X147640000Y-108367549D01*
X147740000Y-108387440D01*
X148640000Y-108387440D01*
X148740000Y-108367549D01*
X148840000Y-108387440D01*
X149740000Y-108387440D01*
X149840000Y-108367549D01*
X149940000Y-108387440D01*
X150840000Y-108387440D01*
X151087765Y-108338157D01*
X151297809Y-108197809D01*
X151438157Y-107987765D01*
X151470533Y-107825000D01*
X151742560Y-107825000D01*
X151742560Y-108290000D01*
X151762451Y-108390000D01*
X151742560Y-108490000D01*
X151742560Y-109390000D01*
X151762451Y-109490000D01*
X151742560Y-109590000D01*
X151742560Y-110490000D01*
X151762451Y-110590000D01*
X151742560Y-110690000D01*
X151742560Y-111590000D01*
X151762451Y-111690000D01*
X151742560Y-111790000D01*
X151742560Y-112690000D01*
X151762451Y-112790000D01*
X151742560Y-112890000D01*
X151742560Y-113790000D01*
X151762451Y-113890000D01*
X151742560Y-113990000D01*
X151742560Y-114890000D01*
X151762451Y-114990000D01*
X151742560Y-115090000D01*
X151742560Y-115990000D01*
X151762451Y-116090000D01*
X151742560Y-116190000D01*
X151742560Y-117090000D01*
X151762451Y-117190000D01*
X151742560Y-117290000D01*
X151742560Y-118190000D01*
X151762451Y-118290000D01*
X151742560Y-118390000D01*
X151742560Y-119290000D01*
X151762451Y-119390000D01*
X151742560Y-119490000D01*
X151742560Y-120390000D01*
X151762451Y-120490000D01*
X151742560Y-120590000D01*
X151742560Y-121490000D01*
X151791843Y-121737765D01*
X151932191Y-121947809D01*
X152142235Y-122088157D01*
X152390000Y-122137440D01*
X153385862Y-122137440D01*
X154311422Y-123063000D01*
X151365026Y-123063000D01*
X151378327Y-123049699D01*
X151475000Y-122816310D01*
X151475000Y-122175750D01*
X151316250Y-122017000D01*
X150517000Y-122017000D01*
X150517000Y-122037000D01*
X150387440Y-122037000D01*
X150387440Y-121090000D01*
X150338157Y-120842235D01*
X150263000Y-120729755D01*
X150263000Y-120613750D01*
X150517000Y-120613750D01*
X150517000Y-121763000D01*
X151316250Y-121763000D01*
X151475000Y-121604250D01*
X151475000Y-120963690D01*
X151378327Y-120730301D01*
X151199698Y-120551673D01*
X150966309Y-120455000D01*
X150675750Y-120455000D01*
X150517000Y-120613750D01*
X150263000Y-120613750D01*
X150104250Y-120455000D01*
X149813691Y-120455000D01*
X149810074Y-120456498D01*
X149740000Y-120442560D01*
X148840000Y-120442560D01*
X148769926Y-120456498D01*
X148766309Y-120455000D01*
X148475750Y-120455000D01*
X148317000Y-120613750D01*
X148317000Y-120729755D01*
X148241843Y-120842235D01*
X148192560Y-121090000D01*
X148192560Y-122037000D01*
X148187440Y-122037000D01*
X148187440Y-121090000D01*
X148138157Y-120842235D01*
X148063000Y-120729755D01*
X148063000Y-120613750D01*
X147904250Y-120455000D01*
X147613691Y-120455000D01*
X147610074Y-120456498D01*
X147540000Y-120442560D01*
X146640000Y-120442560D01*
X146540000Y-120462451D01*
X146440000Y-120442560D01*
X145540000Y-120442560D01*
X145440000Y-120462451D01*
X145340000Y-120442560D01*
X144440000Y-120442560D01*
X144340000Y-120462451D01*
X144240000Y-120442560D01*
X143340000Y-120442560D01*
X143240000Y-120462451D01*
X143140000Y-120442560D01*
X142240000Y-120442560D01*
X142140000Y-120462451D01*
X142040000Y-120442560D01*
X141140000Y-120442560D01*
X141040000Y-120462451D01*
X140940000Y-120442560D01*
X140040000Y-120442560D01*
X139940000Y-120462451D01*
X139840000Y-120442560D01*
X138940000Y-120442560D01*
X138869926Y-120456498D01*
X138866309Y-120455000D01*
X138575750Y-120455000D01*
X138417000Y-120613750D01*
X138417000Y-120729755D01*
X138341843Y-120842235D01*
X138292560Y-121090000D01*
X138292560Y-122037000D01*
X138287440Y-122037000D01*
X138287440Y-121090000D01*
X138238157Y-120842235D01*
X138163000Y-120729755D01*
X138163000Y-120613750D01*
X138004250Y-120455000D01*
X137713691Y-120455000D01*
X137710074Y-120456498D01*
X137640000Y-120442560D01*
X136740000Y-120442560D01*
X136669926Y-120456498D01*
X136666309Y-120455000D01*
X136375750Y-120455000D01*
X136217000Y-120613750D01*
X136217000Y-120729755D01*
X136141843Y-120842235D01*
X136092560Y-121090000D01*
X136092560Y-122037000D01*
X135963000Y-122037000D01*
X135963000Y-122017000D01*
X135163750Y-122017000D01*
X135005000Y-122175750D01*
X135005000Y-122816310D01*
X135101673Y-123049699D01*
X135114974Y-123063000D01*
X132207000Y-123063000D01*
X132207000Y-122914579D01*
X132984139Y-122137440D01*
X134090000Y-122137440D01*
X134337765Y-122088157D01*
X134547809Y-121947809D01*
X134688157Y-121737765D01*
X134737440Y-121490000D01*
X134737440Y-120963690D01*
X135005000Y-120963690D01*
X135005000Y-121604250D01*
X135163750Y-121763000D01*
X135963000Y-121763000D01*
X135963000Y-120613750D01*
X135804250Y-120455000D01*
X135513691Y-120455000D01*
X135280302Y-120551673D01*
X135101673Y-120730301D01*
X135005000Y-120963690D01*
X134737440Y-120963690D01*
X134737440Y-120590000D01*
X134717549Y-120490000D01*
X134737440Y-120390000D01*
X134737440Y-119490000D01*
X134717549Y-119390000D01*
X134737440Y-119290000D01*
X134737440Y-118390000D01*
X134717549Y-118290000D01*
X134737440Y-118190000D01*
X134737440Y-117290000D01*
X134717549Y-117190000D01*
X134737440Y-117090000D01*
X134737440Y-116190000D01*
X134717549Y-116090000D01*
X134737440Y-115990000D01*
X134737440Y-115090000D01*
X134723502Y-115019927D01*
X134725000Y-115016310D01*
X134725000Y-114725750D01*
X134566250Y-114567000D01*
X134450245Y-114567000D01*
X134337765Y-114491843D01*
X134090000Y-114442560D01*
X133143000Y-114442560D01*
X133143000Y-114437440D01*
X134090000Y-114437440D01*
X134337765Y-114388157D01*
X134450245Y-114313000D01*
X134566250Y-114313000D01*
X134725000Y-114154250D01*
X134725000Y-113863690D01*
X134723502Y-113860073D01*
X134737440Y-113790000D01*
X134737440Y-112890000D01*
X134717549Y-112790000D01*
X134737440Y-112690000D01*
X134737440Y-111790000D01*
X134717549Y-111690000D01*
X134737440Y-111590000D01*
X134737440Y-110690000D01*
X134717549Y-110590000D01*
X134737440Y-110490000D01*
X134737440Y-109590000D01*
X134717549Y-109490000D01*
X134737440Y-109390000D01*
X134737440Y-108490000D01*
X134717549Y-108390000D01*
X134737440Y-108290000D01*
X134737440Y-107390000D01*
X134704769Y-107225750D01*
X135005000Y-107225750D01*
X135005000Y-107866310D01*
X135101673Y-108099699D01*
X135280302Y-108278327D01*
X135513691Y-108375000D01*
X135804250Y-108375000D01*
X135963000Y-108216250D01*
X135963000Y-107067000D01*
X135163750Y-107067000D01*
X135005000Y-107225750D01*
X134704769Y-107225750D01*
X134688157Y-107142235D01*
X134547809Y-106932191D01*
X134337765Y-106791843D01*
X134090000Y-106742560D01*
X133094139Y-106742560D01*
X132207000Y-105855421D01*
X132207000Y-105537000D01*
X135436436Y-105537000D01*
X135280302Y-105601673D01*
G04 #@! TD*
M02*
