M48
;DRILL file {KiCad (5.0.2)-1} date 2020/04/06 16:25:57
;FORMAT={3:3/ absolute / metric / suppress leading zeros}
FMAT,2
METRIC,TZ
T1C1.000
%
G90
G05
T1
X126730Y-99200
X129270Y-99200
X131810Y-99200
X134350Y-99200
X136890Y-99200
X139430Y-99200
X141970Y-99200
X144510Y-99200
X147050Y-99200
X149590Y-99200
X152130Y-99200
X154670Y-99200
X157210Y-99200
X159750Y-99200
X162290Y-99200
X162290Y-101740
X162290Y-104280
X162290Y-106820
X162290Y-109360
X162290Y-111900
X162290Y-114440
X162290Y-116980
X162290Y-119520
X162290Y-122060
X162290Y-124600
X162290Y-127140
X162290Y-129680
X126730Y-129680
X129270Y-129680
X131810Y-129680
X134350Y-129680
X136890Y-129680
X139430Y-129680
X141970Y-129680
X144510Y-129680
X147050Y-129680
X149590Y-129680
X152130Y-129680
X154670Y-129680
X157210Y-129680
X159750Y-129680
X124190Y-99200
X124190Y-101740
X124190Y-104280
X124190Y-106820
X124190Y-109360
X124190Y-111900
X124190Y-114440
X124190Y-116980
X124190Y-119520
X124190Y-122060
X124190Y-124600
X124190Y-127140
X124190Y-129680
T0
M30
